<svg width="170" height="73" viewBox="0 0 170 73" fill="none" xmlns="http://www.w3.org/2000/svg">
<path d="M65.3518 46.9606C63.2068 46.9709 61.0618 46.976 58.9116 46.9812C57.888 46.9812 56.5917 46.9812 55.5681 46.9863C56.0465 46.7857 57.0238 46.297 57.8057 45.2425C58.9116 43.7559 58.8756 42.1562 58.8499 41.6829C58.8396 41.0811 58.8345 40.4741 58.8242 39.8723C58.8139 38.8692 58.7984 37.8662 58.7882 36.8683H58.1246C56.9775 36.8683 55.9796 37.1203 55.136 37.6347C54.6113 37.9588 54.2718 38.2931 54.1947 38.3703C53.2173 39.3682 52.9601 40.6182 52.8007 41.3846C52.7389 41.6932 52.7029 41.9556 52.6823 42.1305C52.5589 42.7066 52.1782 44.0697 50.9746 45.2374C49.2102 46.9503 47.0035 46.9606 46.5405 46.9554V52.0993H52.6772V65.957C52.6772 66.0342 52.6772 66.0959 52.6875 66.1628C52.7235 67.7522 53.2173 69.0176 54.1792 69.9898C55.1874 70.998 56.5043 71.5021 58.1195 71.5021H65.0483V66.3479H60.2953C59.426 66.3479 58.9682 65.9107 58.9219 65.0517C58.9116 64.9951 58.9116 64.9385 58.9116 64.8768V52.1045H65.6347C65.5421 50.3916 65.4495 48.6735 65.3569 46.9606H65.3518Z" fill="white"/>
<path d="M9.79698 10.2022C11.4945 9.55925 12.158 8.71051 12.4409 8.03666C12.8216 7.13133 12.6827 6.11284 13.4594 5.54186C13.8041 5.3001 14.1899 5.23323 14.4471 5.22294H18.7062V0.0790405H12.2712C11.1241 0.0790405 10.1262 0.331092 9.28259 0.845482C8.79907 1.13354 8.48014 1.44217 8.34126 1.58106C7.40507 2.52239 7.09129 3.60776 6.96784 4.15815C6.96784 4.57995 6.88553 6.73525 5.12118 8.45331C3.27452 10.2485 0.98548 10.192 0.594543 10.1714V15.3153H6.8341V34.7181H13.0736V15.3153H19.5087V10.1714C16.2783 10.1817 13.0376 10.192 9.80727 10.1971L9.79698 10.2022Z" fill="white"/>
<path d="M45.0317 24.3061C45.9576 24.3267 46.8886 24.3524 47.8197 24.3781C48.7559 24.4038 49.6869 24.4296 50.6128 24.4553C50.7003 24.1672 50.8083 23.6683 50.7363 23.0561C50.6231 22.1148 50.1499 21.5027 50.0573 21.3895C49.3063 20.4482 48.2466 20.2579 47.974 20.2167L45.042 20.0212C45.042 19.6766 45.0317 19.3371 45.0317 18.9925V18.9256C45.0317 18.0871 44.9494 14.471 42.2026 11.8939C39.7541 9.59454 36.6729 9.47623 34.5381 9.47623C32.4034 9.47623 30.6339 9.79516 29.1679 10.4381C27.7019 11.0811 26.5239 11.9247 25.6546 12.9587C24.775 14.0029 24.1423 15.1448 23.7514 16.4051L29.4868 18.3289C29.7183 17.2075 30.2173 16.2919 30.9734 15.582C31.7399 14.8722 32.8869 14.5173 34.4353 14.5173C35.9836 14.5173 37.1821 14.8928 37.8971 15.6386C38.6275 16.3742 38.9876 17.331 38.9876 18.4781V19.8669H32.2542C30.4076 19.8669 28.7718 20.155 27.3315 20.7259C25.8912 21.3072 24.775 22.1662 23.9623 23.303C23.1598 24.4398 22.7586 25.8544 22.7586 27.5313C22.7586 29.2082 23.1598 30.6382 23.9623 31.8162C24.775 32.9839 25.8655 33.8789 27.2595 34.4859C28.6432 35.0929 30.2121 35.4015 31.9559 35.4015C33.6997 35.4015 35.0268 35.1494 36.0196 34.6556C37.0072 34.1618 37.7376 33.5908 38.1955 32.9581C38.6635 32.3152 38.9516 31.7905 39.0905 31.3995H40.0267V31.4458C40.0267 32.4335 40.4279 33.2308 41.2149 33.8172C42.0071 34.4139 43.0153 34.7122 44.2395 34.7122H48.3958V29.558H46.4154C45.9885 29.558 45.6593 29.4551 45.4278 29.2391C44.934 28.7813 45.0266 28.128 45.0368 28.0817V24.301L45.0317 24.3061ZM38.9928 25.016C38.9928 26.6311 38.4424 27.9274 37.3313 28.8996C36.2305 29.8718 34.8005 30.3553 33.0567 30.3553C31.7399 30.3553 30.7317 30.0776 30.0424 29.5169C29.3428 28.9562 28.9982 28.2309 28.9982 27.341C28.9982 26.4511 29.3325 25.7515 29.9858 25.2577C30.6493 24.7639 31.5547 24.5221 32.7121 24.5221H38.9979V25.016H38.9928Z" fill="white"/>
<path d="M87.3665 13.6635C86.6206 12.357 85.6278 11.3848 84.3984 10.7418C83.1588 10.0988 81.7853 9.76962 80.2627 9.76962C78.3852 9.76962 76.9295 10.1245 75.911 10.8138C74.8822 11.5031 74.0901 12.3827 73.5294 13.4372H72.6446C72.0839 12.3467 71.2712 11.4671 70.2167 10.7881C69.1622 10.1143 67.7631 9.76962 66.0141 9.76962C64.3989 9.76962 63.0924 10.0782 62.0996 10.6955C61.112 11.3025 60.4021 12.0226 59.9701 12.8405H59.0853V10.1708H52.9435V34.7175H59.183V20.2169C59.183 18.5348 59.574 17.2386 60.3507 16.3332C61.1274 15.4279 62.2179 14.9701 63.6377 14.9701C64.8979 14.9701 65.8701 15.3045 66.5594 15.9886C67.2487 16.6624 67.5933 17.6809 67.5933 19.0338V34.7175H73.8329V20.2169C73.8329 18.5348 74.2238 17.2386 75.0005 16.3332C75.7773 15.4279 76.8678 14.9701 78.2875 14.9701C79.5375 14.9701 80.5199 15.3045 81.2092 15.9886C81.8985 16.6624 82.2431 17.6809 82.2431 19.0338V34.7175H88.4827V18.5811C88.4827 16.6007 88.1072 14.9598 87.3716 13.6584L87.3665 13.6635Z" fill="white"/>
<path d="M119.29 22.4599C119.198 21.1327 119.013 20.0062 118.73 19.07L113.241 20.7778C113.586 21.7397 113.745 22.7736 113.699 23.895C113.653 25.0164 113.01 26.1943 111.765 27.4237C110.561 28.6377 109.162 29.291 107.573 29.3835C105.983 29.4761 104.574 28.9515 103.334 27.8147L115.967 15.1812L114.465 13.6792C112.691 11.9046 110.788 10.6906 108.74 10.0579C106.703 9.41492 104.671 9.33776 102.655 9.84186C100.639 10.346 98.7817 11.4468 97.079 13.1494C95.3507 14.8777 94.1933 16.7604 93.6223 18.8077C93.0514 20.8447 93.0822 22.8971 93.6995 24.9598C94.3168 27.0225 95.541 28.9669 97.3517 30.7878L97.7735 31.2096C99.5944 33.0306 101.544 34.2445 103.617 34.8515C105.7 35.4585 107.763 35.4688 109.815 34.8875C111.863 34.3011 113.756 33.1437 115.484 31.4257C117.073 29.8362 118.128 28.2776 118.647 26.7499C119.172 25.2273 119.383 23.7973 119.29 22.465V22.4599ZM98.9669 20.7778C99.0595 19.4712 99.7024 18.2264 100.891 17.033C102.027 15.8962 103.262 15.2687 104.579 15.1658C105.906 15.0629 107.11 15.4641 108.2 16.3695L100.088 24.4917C99.2498 23.324 98.8743 22.0843 98.9669 20.7778Z" fill="white"/>
<path d="M94.1369 52.0584C93.0155 50.1706 91.4878 48.7457 89.5331 47.7529C87.5887 46.7653 85.3974 46.2663 82.9489 46.2663C80.5004 46.2663 78.3194 46.7602 76.3647 47.7529C74.4203 48.7406 72.8926 50.1706 71.7712 52.0584C70.6395 53.9359 70.0789 56.1941 70.0789 58.838V59.6302C70.0789 62.2639 70.6395 64.5221 71.7712 66.4099C72.8926 68.2874 74.4203 69.7225 76.3647 70.7153C78.3142 71.7029 80.5107 72.2019 82.9489 72.2019C85.3871 72.2019 87.5887 71.7081 89.5331 70.7153C91.4826 69.7277 93.0155 68.2874 94.1369 66.4099C95.2583 64.5221 95.8189 62.2639 95.8189 59.6302V58.838C95.8189 56.1941 95.2583 53.9359 94.1369 52.0584ZM94.1729 59.121C87.208 61.4717 85.3048 63.375 82.954 70.3398C80.6033 63.375 78.7 61.4717 71.7352 59.121C78.7 56.7702 80.6033 54.8669 82.954 47.9021C85.3048 54.8669 87.208 56.7702 94.1729 59.121Z" fill="white"/>
<path d="M124.13 51.4876C123.338 49.9547 122.226 48.751 120.786 47.8766C119.346 46.997 117.679 46.5597 115.761 46.5597C113.549 46.5597 111.903 46.9507 110.812 47.7274C109.727 48.5041 108.981 49.322 108.59 50.1759H107.695V46.9661H101.558V71.5128H107.798V59.0388C107.798 56.7601 108.323 54.9854 109.377 53.7149C110.442 52.4443 111.928 51.8116 113.832 51.8116C115.524 51.8116 116.81 52.2797 117.726 53.2005C118.631 54.1264 119.078 55.505 119.078 57.3568V71.5128H125.318V56.863C125.318 54.8157 124.927 53.0256 124.13 51.4927V51.4876Z" fill="white"/>
<path d="M132.047 46.96V71.5067H138.286V46.96H132.047Z" fill="white"/>
<path d="M162.627 56.1479C163.558 57.4596 164.026 58.8021 164.026 60.1756C164.026 61.549 163.357 62.9018 162.025 64.2341C161.14 65.1188 160.147 65.7258 159.052 66.055C157.961 66.3791 156.824 66.3637 155.657 66.0139C154.489 65.6641 153.357 64.944 152.262 63.8483L151.912 63.4985C150.816 62.4029 150.091 61.2661 149.741 60.0984C149.397 58.9359 149.386 57.7991 149.71 56.7137C150.034 55.6129 150.641 54.6201 151.526 53.7354C152.416 52.8455 153.321 52.2694 154.247 52.007C155.163 51.7344 156.068 51.719 156.953 51.9556C157.843 52.1871 158.681 52.6037 159.473 53.2107L162.827 48.036C161.315 46.9866 159.684 46.3179 157.93 46.0401C156.187 45.7623 154.422 45.927 152.648 46.5288C150.878 47.1358 149.16 48.2726 147.504 49.9289C145.827 51.6058 144.659 53.4731 143.99 55.5409C143.322 57.6088 143.26 59.692 143.8 61.8216C144.33 63.946 145.544 65.9522 147.432 67.8451L147.92 68.3338C149.813 70.2267 151.814 71.4356 153.949 71.9705C156.068 72.5055 158.162 72.4438 160.23 71.7802C162.297 71.1166 164.165 69.9438 165.842 68.2669C167.519 66.59 168.635 64.8925 169.237 63.1179C169.844 61.3484 170.008 59.584 169.725 57.8351C169.453 56.0862 168.841 54.4401 167.909 52.9021L162.627 56.1479Z" fill="white"/>
<path d="M139.778 40.1555C136.913 41.1226 136.131 41.9044 135.164 44.7696C134.197 41.9044 133.415 41.1226 130.55 40.1555C133.415 39.1885 134.197 38.4066 135.164 35.5414C136.131 38.4066 136.913 39.1885 139.778 40.1555Z" fill="white"/>
</svg>
